<svg xmlns="http://www.w3.org/2000/svg" width="800" height="600" viewBox="0 0 800 600"><path fill="#FFF" d="M198.626 527.695c-.952-2.854-3.49-9.196-4.123-13.953-1.585-10.465 3.806-17.125 8.88-18.71 5.708-1.586 7.928 1.268 9.83 7.928 2.855 9.83 3.172 23.15 2.22 41.543-1.268 25.37-13.953 56.448-45.665 55.814-27.273-.95-39.64-18.71-40.91-45.666-.633-12.685.318-25.37 5.71-43.445 2.853-9.514 5.39-13.002 13.953-14.905 6.978-1.268 6.344 6.025 4.758 14.27-3.488 18.71-5.074 27.59-3.805 48.838 1.268 22.516 11.416 31.078 22.833 31.078 16.808.317 24.42-13.637 27.273-33.933 2.534-16.172.63-24.1-.954-28.858m358.35 21.882c6.66 0 8.564 7.61 6.978 12.368-1.585 4.757-7.294 9.83-15.855 11.416-1.906-4.438-2.857-23.783 8.877-23.783m-121.46 10.782c0-5.392-2.853-9.515-6.34-9.515-2.855 0-9.198 3.17-9.198 13.002 0 7.93 2.853 11.417 4.122 13.002 8.88-2.854 11.416-10.465 11.416-16.49m-97.04-63.743c-.317-5.074-4.44-8.245-9.514-8.245-6.025 0-11.417 6.343-10.782 13.953.317 5.074 3.488 9.514 9.197 9.514 6.975 0 11.732-7.93 11.098-15.223m50.74 18.394c-.634-8.562-2.537-12.685-7.294-12.367-6.342.317-9.197 19.98-7.928 40.275.952 13.318 2.854 15.54 4.757 15.222 3.488 0 11.733-23.785 10.465-43.13m206.448 32.665c-3.806 15.855-15.54 39.64-32.98 39.64-4.123 0-11.1-1.585-11.1-5.708 0-4.44 27.272-5.074 27.272-25.687 0-7.61-7.294-18.71-17.76-18.71-13.953 0-27.59 15.222-27.59 36.47 0 19.026 11.734 25.052 23.468 25.052 20.613 0 32.98-16.808 39.64-30.76 3.172 9.195 5.075 30.76 12.687 30.76 3.17 0 5.39-1.586 9.196-9.83 9.195-20.93 18.393-44.716 30.76-44.716 4.757 0 1.903 8.563 13.002 8.563 5.392 0 8.88-4.44 8.88-9.515 0-7.294-6.66-12.685-16.49-12.685-29.176 0-35.52 43.763-40.275 43.763-7.928 0-5.39-35.2-10.782-35.2-4.758 0-7.295 6.025-7.93 8.562m-248.942 37.42c4.757 0 12.685-1.585 19.027-11.733-3.488-7.928-6.025-24.102-6.66-30.127-1.903-30.127 9.83-58.668 22.516-59.302 9.196-.635 16.808 8.245 17.76 22.516 2.22 37.736-10.15 53.275-16.49 66.912.95 5.392 9.83 14.27 18.392 14.27 3.17 0 6.977-1.584 7.93-2.853-.636-2.222-1.27-5.075-1.27-8.88 0-21.883 13.953-40.275 26.004-40.275 9.514 0 15.222 12.685 15.222 21.247 0 9.83-8.563 18.076-20.93 25.687 2.22 2.22 6.342 3.805 9.514 3.805 17.76 0 26.955-21.564 33.932-41.226 1.27-3.807 3.488-8.88 7.93-8.88 7.61 0 10.464 49.153 23.148 49.153 5.392 0 9.515-10.782 9.515-19.345 0-6.343-2.22-6.977-2.22-15.856 0-9.83 5.39-18.393 12.367-18.393 4.44 0 6.025 4.438 6.025 9.513 0 19.98-14.27 57.082-35.518 57.082-15.856 0-14.588-27.272-20.296-27.272-6.342 0-14.904 27.59-45.665 27.59-5.074 0-10.148-2.537-14.588-7.61-7.61 5.073-13.637 7.293-20.93 7.293-11.417 0-16.49-11.733-21.248-11.733-5.71 0-11.735 12.05-30.445 12.05-14.905 0-17.442-19.978-22.833-19.978-4.757 0-11.734 19.98-19.662 19.98-13.002 0-15.856-34.567-27.272-34.567-8.88 0-37.42 35.2-45.35 34.25-3.17-.317-4.438-2.538-4.122-5.71.317-4.438 4.123-15.855 5.708-21.246 2.537-9.514 4.757-19.98 6.025-23.15 1.268-3.488 4.756-5.708 7.61-5.39 1.27 0 1.903 2.853 2.22 4.756 1.586 7.61 3.806 15.54 6.343 15.54 4.44 0 18.71-27.59 27.272-27.59 10.148 0 11.417 43.444 25.37 43.444 4.757 0 8.245-5.708 11.1-12.367.317-11.417 3.488-27.907 12.685-27.907 6.66 0 9.514 14.588 5.074 27.272.318 15.22 10.15 19.025 16.81 19.025M563.636 97.04c-2.22 0-5.71 0-7.294-3.488-1.586-2.854-.95-7.928-3.806-9.83 2.854.95 5.708.95 8.245.95 7.294 0 14.588-5.073 19.98-5.073 3.488 0 4.756 2.22 4.756 4.756-.317 6.66-15.222 12.684-21.88 12.684m3.487 18.71c17.125 0 32.98-13.636 32.98-25.687 0-5.708-2.537-10.148-9.514-11.1 1.27 1.586 1.587 2.537 1.587 5.39 0 9.198-13.953 19.03-28.858 19.03-5.393 0-6.978 3.804-6.978 5.707 0 4.758 4.44 6.66 10.783 6.66m-1.27 6.977c2.22 15.54 26.005 36.787 32.348 36.47 4.44-.317 6.025-20.613 6.025-36.47 0-9.196.634-16.173-4.44-17.76-7.61 15.223-27.59 18.394-33.932 17.76m-371.67 103.7c5.708 0 4.44-34.25 13.636-34.25 2.22 0 2.854 2.22 2.854 4.757 0 7.61-3.806 19.027-3.806 25.37 0 3.17.95 4.123 2.22 4.123 4.123 0 10.782-37.738 17.76-37.738 2.22 0 3.17 2.22 3.17 4.438 0 7.928-10.148 30.76-10.148 37.104 0 .952.317 1.903 1.27 1.903 4.122 0 12.367-17.76 14.904-26.638 1.586-4.757 3.488-6.977 5.39-6.977 1.587 0 3.172 1.903 3.172 5.708 0 8.88-8.245 29.81-15.54 44.08-5.707 10.782-14.27 26.64-14.27 35.2 0 4.44.95 9.197 7.293 14.59-10.464-.636-14.904-1.587-18.71-9.832-17.758 35.2 32.665 31.712 15.223 62.79-3.17-5.708-27.907-11.416-27.907-44.08 0-28.224 24.736-44.714 24.736-56.448 0-2.22-.952-4.44-2.854-6.025-5.39-4.757-5.708-8.562-9.83-8.562-3.172 0-6.978 7.295-2.855 13.637 1.268 2.22 2.537 3.488 2.537 5.39 0 4.758-7.294 17.126-12.368 17.126-5.074 0-9.197-12.685-9.197-33.298 0-18.076 4.123-36.47 9.197-36.47 1.585 0 1.903.952 1.903 2.22 0 2.22-.634 6.344-.634 13.637-.632 7.61 1.27 8.245 2.856 8.245"/><path fill="#FFF" d="M236.046 274.947c6.977 0 12.685-5.074 12.685-16.49v-16.81c0-6.34.635-13.635 4.758-18.71-.634 2.22-.634 4.44-.634 6.66 0 14.272 7.928 24.103 7.928 37.74 0 5.073-1.585 7.927-5.39 7.927s-3.49-3.488-4.44-3.488c-.635 0-1.586 2.22-1.586 4.44 0 3.488 2.537 8.88 9.514 8.88 6.025 0 10.782-5.392 10.782-11.418 0-14.905-11.417-31.396-11.417-47.25 0-6.978 1.903-11.418 3.17-15.223 0 32.98 27.908 56.765 27.908 70.402 0 3.17-2.22 5.708-5.708 5.708-3.806 0-5.708-2.854-5.708-5.39 0-1.27-.317-1.586-.635-1.586-.95 0-3.805 3.17-3.805 7.61 0 5.39 4.44 12.05 12.685 12.05 9.514 0 14.587-7.927 14.587-14.904 0-17.442-33.933-43.446-33.933-71.67 0-4.757.95-12.685 4.44-18.393-21.882 13.954-28.542 32.664-28.542 49.154 0 14.27-.634 21.248-7.61 21.248-3.807 0-4.758-3.488-6.026-3.488-.953 0-1.587 2.854-1.587 3.805-.316 5.707 4.124 9.195 8.563 9.195M486.258 89.112c2.22-1.27 11.417.95 23.468-5.074 1.585-.95 2.854-1.27 4.44-1.27 5.707 0 4.438 6.66 9.513 6.66 4.122 0 9.513-3.487 12.684-3.487 5.074 0 12.05 15.54 12.05 22.834 0 8.562-12.684 13.636-27.59 13.636-21.88 0-35.2-19.027-35.2-31.396-.317-1.268.316-1.585.634-1.902m36.152 20.93c7.294 0 12.685-3.17 12.685-5.39 0-.635-.95-1.27-3.17-1.27s-6.344-.317-14.59-1.586c-6.976-1.27-12.366-3.805-14.27-3.805-.634 0-.95.318-.95.952 0 4.44 7.927 11.1 20.295 11.1M239.535 337.104c-5.39 1.27-14.27 9.83-14.27 23.468 0 16.173 17.44 41.226 45.982 41.226 24.1 0 30.126-16.808 30.126-27.907 0-25.052-15.222-42.493-35.2-42.493-10.783 0-20.614 7.928-20.614 19.66 0 10.783 8.245 27.274 27.906 27.274 9.197 0 14.588-6.66 14.588-14.27 0-7.294-6.66-17.76-16.808-17.76-2.854 0-5.074 1.903-5.074 5.074 0 3.806 5.39 7.93 12.368 7.93 1.586 0 2.854-.318 3.49-.636.316.635.633 1.27.633 1.903 0 3.806-3.49 6.026-9.197 6.026-8.563 0-16.49-6.343-16.49-16.174 0-6.025 5.073-10.148 12.684-10.148 14.588 0 23.467 13.003 23.467 26.005 0 11.732-6.342 18.392-19.662 18.392-26.636.317-39.638-23.467-33.93-47.568m188.69 96.722c7.928 0 7.61-.634 10.147-.634s2.537 1.586 2.537 2.537c0 3.487-8.246 8.244-22.518 8.244-8.562 0-13.636-4.44-14.904-9.514-8.245 5.392-20.93 10.148-33.298 10.148-33.933 0-42.495-14.588-52.96-19.345-8.245-3.488-20.613 3.488-37.738-15.856 2.22.634 5.39.634 7.928.634 15.222 0 23.15-7.293 23.15-19.344 0-1.585-.317-3.17-.317-4.757 4.757 1.902 15.222 9.83 17.76 23.784.316 1.585 6.976 3.17 11.416 3.17 6.024 0 13.635-2.536 14.587-12.367 19.662-1.585 33.298-13.32 36.152-28.224 6.976 2.22 15.22 8.88 17.124 12.05 2.854-.95 6.025-1.585 9.83-1.585 5.392 0 11.1.95 18.394 3.17.317-2.22.635-4.756 4.123-4.756 5.075 0 3.49 5.392 5.393 8.563.95 1.586 5.073 2.537 5.073 6.025 0 3.172-2.537 4.44-4.44 4.44-.633 0-1.585-.317-1.9-.317-3.173 1.27-3.49 25.053-17.443 25.053-10.147 0-19.66-8.563-23.784-19.027-1.27-3.173-3.49-5.075-6.026-5.075s-4.123.635-7.294 4.123c-8.88 9.83-23.784 18.076-42.178 18.076-5.708 0-10.148-.635-11.1-.635-.633 0-.633.316-.633.316 0 1.27 5.707 5.708 17.758 5.708 29.176 0 36.152-16.49 40.91-16.49.633 0 2.536 0 3.805 2.537 6.34 15.86 21.244 19.347 30.44 19.346m-13-32.98c0 3.488 2.854 6.66 6.66 6.66 3.487 0 6.658-2.854 6.658-6.66 0-3.488-2.853-6.66-6.658-6.66-3.49.317-6.66 3.17-6.66 6.66m130.972-82.452c-2.22 0-4.757 1.902-4.757 6.342 0 5.074 3.806 7.93 6.025 9.197 1.27.634 2.854 1.27 4.757 1.27 4.756 0 8.562-1.27 8.562-5.393 0-5.075-7.61-11.416-14.588-11.416m-17.758 10.464c-3.488 0-22.516 25.688-34.884 25.688-2.854 0-5.39-5.71-5.39-9.83 0-2.22 1.584-4.124 6.658-5.075 28.54-6.342 22.198-27.906 46.3-27.906 13.32 0 28.225 9.197 28.225 29.493 0 21.88-31.078 48.837-35.518 48.837-3.806 0-7.93-5.39-7.93-9.196 0-1.27.636-2.537 3.807-3.806 15.856-6.343 25.053-20.93 25.053-28.225 0-1.585-.95-3.17-2.854-3.17-2.854 0-14.904 27.27-28.224 27.27-9.197 0-18.712-8.562-18.712-12.366 0-6.66 26.64-18.71 26.64-28.224-.318-3.488-1.904-3.488-3.172-3.488M201.48 112.262s-4.757 3.488-10.782 3.488c-6.977 0-12.685-5.39-12.685-12.685 0-5.074 2.537-10.465 8.88-13.002-.318.95-.318 1.903-.318 2.854 0 9.514 5.39 16.49 14.905 19.345m35.518 31.713c-3.49 4.44-7.294 11.417-7.294 19.027 0 8.88 5.39 16.49 13.954 16.49 8.245 0 11.733-6.976 11.733-13.953-.316-11.417-10.147-19.028-18.392-21.565m-54.863 6.66c-.317.633-.634 1.268-.634 1.902 0 1.585 1.587 3.17 3.172 3.17 1.27 0 2.22-.316 2.854-.316 3.806 0 8.563 2.855 14.905 2.855 3.807 0 8.247-1.27 13.955-3.805 11.733-6.025 16.49-20.613 16.49-23.15 0-3.17-2.536-2.854-4.756-5.708s-1.27-5.39-2.538-6.66c-.634-.634-3.17-.952-6.025-1.27-.952 0-2.22-.316-3.488-.316-5.392 0-12.052.634-19.03 5.392-14.905 8.88-12.685 24.1-14.905 27.906m38.69-20.613c1.268 1.587 4.44 3.49 4.44 4.758 0 2.22-1.27 5.39-4.124 5.39-5.707 0-10.464-8.878-10.464-13.635 0-3.17 1.902-3.488 4.44-3.488 1.268 0 1.584.317 2.536.634 1.27.633 1.27 4.12 3.173 6.34m-15.222 20.297c-5.39 0-11.417-6.66-11.417-13.002 0-3.17 2.537-7.294 4.44-7.294.634 0 .95.635 1.27 1.587.95 8.245 6.34 12.685 11.098 14.905.634.317.95.634.95.95-.316 1.27-3.487 2.855-6.34 2.855m13.952-41.543c.95-2.537 1.585-6.025 1.585-9.514 0-7.928-3.487-19.98-14.904-19.98-6.343 0-11.1 5.075-11.1 11.1 0 13.003 13.004 18.394 24.42 18.394m-42.812 65.962c0 12.685 3.806 18.393 10.465 18.393 5.39 0 12.367-3.807 20.93-11.1-6.344 1.585-11.418 2.537-15.857 2.537-5.708 0-10.465-2.22-15.54-9.83m6.027-14.59c-.317.953-.317 1.586-.317 2.538 0 7.61 4.123 12.05 9.514 12.05 4.123 0 8.88-2.536 13.32-7.927-1.903.317-3.806.634-6.026.634-6.025-.317-12.685-1.903-16.49-7.294m40.274-2.537c-3.806.953-11.734 5.71-11.734 13.955 0 6.025 4.757 9.83 10.465 9.83 2.854 0 5.074-.633 6.342-1.585-4.757-4.44-6.342-9.514-6.342-14.27.318-3.807.635-5.71 1.27-7.93m6.025-45.03c0 3.488 2.854 6.66 6.66 6.66 3.488 0 6.66-2.855 6.66-6.66 0-3.49-2.854-6.66-6.66-6.66s-6.66 2.854-6.66 6.66m8.562 14.587c0 3.488 2.854 6.66 6.66 6.66 3.488 0 6.66-2.854 6.66-6.66 0-3.488-2.855-6.66-6.66-6.66-3.806.318-6.66 3.172-6.66 6.66m257.822 81.184c0-3.17 2.854-6.024 6.343-6.024s6.343 2.854 6.343 6.025c0 3.806-2.854 6.343-6.343 6.343s-6.343-2.537-6.343-6.342m-58.033-50.74c0 3.49 2.855 6.66 6.66 6.66 3.488 0 6.66-2.853 6.66-6.66 0-3.487-2.854-6.66-6.66-6.66s-6.66 2.856-6.66 6.66m-5.707 23.15c0 5.075 4.44 9.515 9.514 9.515 5.073 0 9.514-4.44 9.514-9.514 0-5.073-4.44-9.513-9.513-9.513-5.075.317-9.514 4.44-9.514 9.514m20.93-10.464c0 5.708 4.44 10.148 10.148 10.148 5.71 0 10.148-4.44 10.148-10.148 0-5.708-4.44-10.148-10.147-10.148-5.708 0-10.147 4.44-10.147 10.148m.634-21.565c0 3.49 2.854 6.344 6.342 6.344s6.342-2.854 6.342-6.343-2.854-6.34-6.343-6.34-6.343 2.853-6.343 6.34m29.81-15.855c0 3.488 2.854 6.342 6.342 6.342 3.488 0 6.342-2.854 6.342-6.342 0-3.49-2.854-6.343-6.343-6.343-3.49 0-6.343 2.855-6.343 6.343M470.72 153.17c0 5.71 4.756 10.466 10.464 10.466 5.71 0 10.466-4.757 10.466-10.465 0-5.707-4.757-10.464-10.466-10.464-5.708 0-10.465 4.757-10.465 10.465m-16.81 38.69c0 3.488 2.855 6.66 6.66 6.66 3.49 0 6.66-2.854 6.66-6.66 0-3.488-2.854-6.66-6.66-6.66-3.804 0-6.66 3.172-6.66 6.66m21.566-13.32c0 3.49 2.854 6.66 6.66 6.66 3.488 0 6.66-2.853 6.66-6.66 0-3.487-2.855-6.658-6.66-6.658-3.806.317-6.66 3.17-6.66 6.66m-6.026 23.466c0 6.343 5.074 11.417 11.417 11.417 6.342 0 11.416-5.074 11.416-11.417 0-6.342-5.074-11.417-11.416-11.417-6.343.002-11.417 5.076-11.417 11.418m23.784-13.953c0 4.44 3.488 7.928 7.61 7.928 4.44 0 7.612-3.488 7.612-7.928 0-4.44-3.488-7.61-7.61-7.61-4.123-.318-7.612 3.17-7.612 7.61m-.633-20.93c0 3.805 3.172 6.977 6.978 6.977s6.977-3.17 6.977-6.977c0-3.806-3.17-6.977-6.977-6.977s-6.977 3.17-6.977 6.977M509.41 383.72c-4.44 3.173-14.27 10.783-31.078 10.783-8.88 0-13.002-2.854-14.27-2.854-1.587 0-3.49 1.584-5.393 3.804-3.806 4.757-9.196 13.32-9.196 22.517 0 6.66 5.075 13.32 14.59 13.32 30.76 0 53.91-19.345 53.91-34.884.634-8.88-4.756-12.685-8.562-12.685m-8.562-1.902c1.27-1.27 1.586-2.854 1.586-4.757v-3.805c0-4.757-7.294-7.61-17.125-7.61-12.05 0-18.394 5.39-18.394 7.61v7.61c0 3.172 7.294 6.343 16.174 6.343 6.976.318 13.636-1.584 17.76-5.39m-1.27 16.49c.95 0 1.902.636 1.902 3.49 0 3.487-1.586 8.562-7.61 12.367-4.124 2.854-9.832 5.074-18.077 5.39 1.27-3.804 2.22-7.927 2.22-12.05 0-1.27-.317-2.22-.317-3.805h2.22c13.002-.317 18.71-5.39 19.66-5.39M436.47 196.616c1.902 13.954 20.612 6.977 20.612 23.785 0 2.537-.634 6.025-.634 9.196 0 3.49.317 6.66 3.17 6.66 2.855 0 3.49-1.903 3.49-4.757 0-2.536-.635-6.024-.635-7.61 0-5.708 4.123-6.977 6.66-6.977 6.342 0 11.1 6.343 20.612 6.343-2.22 10.465-24.102 7.61-24.102 19.345 0 5.71 5.71 6.978 9.514 6.978 3.488 0 4.757-.634 4.757-3.488 0-1.586-.316-3.488-.316-4.757 0-.634.634-1.27 1.27-1.27 3.487 0 21.563 13.637 21.563 17.76 0 3.806-18.71 7.61-24.1 7.61-1.587 0-1.904-1.268-1.904-1.902 0-1.268 2.854-4.756 2.854-6.66 0-1.584-2.537-2.536-9.196-2.536-3.172 0-5.392.317-5.392 2.854 0 4.44 7.294 9.83 7.294 13.954 0 3.17-1.902 5.39-7.294 5.39-4.44 0-11.1-3.487-11.1-9.196 0-4.757 4.757-9.196 4.757-12.05 0-.952-.635-2.22-2.537-2.22-6.025 0-7.93 16.172-29.493 18.075 3.488-3.17 6.343-6.66 6.343-13.635 0-3.488-.95-6.343-.95-10.148 0-5.074 2.22-7.294 5.707-7.294 6.025 0 9.196 8.563 13.002 8.563 2.22 0 4.44-1.903 4.44-5.074 0-12.685-24.103-10.782-24.103-28.54-.316-4.44 1.27-10.15 5.71-18.395m78.646 48.203c0 4.123 1.27 8.88 5.392 8.88 3.488 0 6.342-5.392 6.342-11.1 0-6.66-1.27-11.734-1.27-14.27 0-1.27.636-1.586 1.27-1.586 2.537.317 4.757 6.977 7.294 6.977 2.854 0 7.294-5.39 9.197-5.39.635 0 .635.634.635.952 0 2.537-3.806 7.928-3.806 10.148 0 1.903 9.513 2.22 9.513 3.806 0 2.537-10.147 2.537-14.904 4.757-4.758 1.902-7.295 4.44-7.295 7.61s3.17 3.807 7.928 3.807c11.1 0 18.71-6.025 21.247-6.025.635 0 .952.317.952.95 0 1.586-5.71 6.978-5.71 9.515 0 2.854 10.15 6.025 10.15 7.61-.318.635-.952.635-1.903.635-1.904 0-4.758-.634-6.66-.634-1.27 0-2.538.318-2.855.952-1.268 1.27.317 10.148-1.902 10.148s-7.928-19.345-20.613-19.345c-1.902 0-3.17 1.586-3.17 3.806 0 6.66 6.342 14.272 12.684 17.76 2.854 1.903 7.294 3.49 7.294 4.757 0 1.903-10.465.317-10.465 3.49 0 2.853 1.27 7.293 1.27 10.146 0 .952-.318 1.903-1.27 1.903-1.903 0-6.66-9.197-9.196-9.197-1.903 0-6.343 5.39-8.246 5.39-.633 0-.95-.635-.95-.95 0-3.807 6.025-12.37 6.025-20.932 0-4.123-.634-12.685-5.39-12.685-3.807 0-8.564 6.343-10.467 12.685-1.27 3.488-.316 17.76-2.854 17.76s-1.903-9.515-5.074-9.515c-2.537 0-7.61 4.44-9.514 4.44-.317 0-.634-.317-.634-.634 0-1.904 4.757-8.564 4.757-9.832 0-2.537-10.783-2.854-10.783-4.757 0-1.267 4.44-1.9 8.245-2.536 8.245-1.586 20.93-7.61 20.93-16.173 0-9.513-9.196-13.636-15.222-17.758-3.172-1.903-6.66-3.488-6.66-5.074 0-1.27 4.123-1.27 5.71-1.27 2.536 0 5.072-.316 5.072-2.22 0-1.585-.316-4.44-.316-6.66 0-1.585.316-2.853.95-2.853 2.538 0 6.026 8.246 7.612 8.246 2.536 0 6.342-6.66 8.88-6.66.95 0 1.268.635 1.268 1.904-.32 6.34-3.49 13-3.49 19.026m-73.89 45.666c7.61.95 9.515 3.488 9.515 5.708 0 3.488-3.17 4.757-6.342 4.757-2.22 0-5.074-.633-7.61-.633-3.49 0-7.295.95-10.148 4.44 2.22.316 5.39 1.9 5.39 5.073 0 9.514-26.638 1.585-26.638 26.32 0 13.003 13.637 27.273 33.933 27.273 10.465 0 17.442-3.488 17.442-7.294 0-3.172-5.71-.952-5.71-3.49 0-1.268 1.904-3.17 1.904-5.073 0-.95-.634-2.22-1.902-2.22-2.854 0-8.562 4.757-19.98 4.757-8.88 0-17.758-5.073-17.758-12.05 0-1.586.634-2.22 1.585-2.22.952 0 2.22.634 3.488.634.952 0 1.27-.635 1.27-2.537s0-6.976 3.17-6.976 9.197 11.416 32.03 11.416c7.61 0 22.2-1.586 27.59-6.343-.316 18.076-14.27 42.178-44.08 42.178-30.76 0-47.25-24.735-47.25-47.568 0-25.37 20.612-48.203 48.836-48.203 7.293 0 13.318 2.537 13.318 5.708-.318 4.125-11.1 1.27-12.05 6.344m50.738 8.88c1.27 1.902 1.586 3.488 1.586 5.39 0 4.758-3.17 8.88-3.17 13.638 0 5.39 4.12 9.83 10.464 9.83 6.66 0 11.416-5.39 11.416-11.733 0-8.88-7.928-16.173-20.296-17.124M437.42 309.83c1.586 1.587 2.22 3.172 2.22 5.075 0 2.537-1.268 5.073-1.268 7.928 0 3.806 2.854 7.294 7.294 7.294 4.757 0 7.928-3.488 7.928-7.928-.318-6.026-6.66-12.37-16.173-12.37m21.882-27.906c17.442 3.17 26.64 16.49 26.64 28.54 0 8.564-5.392 16.175-14.59 16.175-8.56 0-14.586-5.71-14.586-14.906 0-6.977 5.39-14.27 5.39-21.247.318-2.855-.634-5.71-2.854-8.563m8.562 21.882c0 2.22 1.586 4.122 4.123 4.122s4.44-2.22 4.44-5.073c0-3.488-3.172-8.246-6.026-8.246-1.268 0-.95 1.902-1.268 4.122-.316 1.903-1.268 3.805-1.268 5.074m-182.346-169.98c5.708 0 12.05-30.443 12.05-35.517 0-1.27-.633-2.22-1.585-2.22-5.074 0-12.368 28.857-12.368 35.2 0 1.268.317 2.537 1.903 2.537m40.592 9.196c4.123 0 8.88-15.856 8.88-25.688 0-2.22-.318-4.44-1.27-4.44-3.488 0-9.196 16.49-9.196 25.37-.317 3.173.635 4.758 1.586 4.758m-26.956-14.587c1.903 0 4.123-1.903 8.563-6.66.317-2.22.317-4.123.317-6.66 0-3.17-1.27-6.977-3.17-6.977-5.075 0-7.294 13.318-7.294 16.807-.32 1.586.633 3.49 1.584 3.49m22.516-6.978c0-2.855-.634-3.49-1.268-3.49-1.586 0-3.49 1.903-6.025 6.343.317 6.025 1.27 8.563 2.854 8.563 1.903.316 4.44-5.71 4.44-11.417m12.685-19.346c10.782 0 15.856 9.514 15.856 19.98 0 4.756-1.268 11.416-3.487 11.416-2.22 0-1.903-3.806-2.22-7.294-.317-4.44-1.268-5.39-2.537-5.39-2.854 0-4.757 6.66-4.757 12.684 0 3.805.633 8.245 3.487 8.245 1.585 0 3.17-.952 4.123-1.903-.634 7.61-6.343 14.27-14.27 14.27-14.59 0-19.98-17.124-21.565-26.955-8.88 9.197-16.808 16.173-31.396 16.173-13.637 0-19.663-9.83-19.663-19.345 0-2.854.95-10.148 4.44-10.148 4.122 0 .633 13.637 8.562 13.637 1.902 0 5.707-1.586 7.61-6.977 1.27-3.17 1.903-6.66 1.903-9.83 0-4.44-.95-7.295-4.44-7.295-2.853 0-6.342 2.22-7.293 3.17 4.123-12.05 13.636-18.075 24.102-18.075 13.002 0 19.98 11.417 19.98 24.418 0 1.903-.318 3.806-.635 5.708 6.025-9.512 13.953-16.49 22.198-16.49"/><path fill="#FFF" d="M303.594 146.512c-6.977 0-7.294 8.563-7.294 26.004-5.39-11.416-13.954-23.467-24.418-23.467-6.977 0-9.514 4.756-9.514 12.684 0 1.586.317 4.123.634 5.708.952-2.854 3.488-3.806 6.66-3.806 6.977 0 15.54 5.39 21.248 13.002-6.343-1.27-12.685-2.22-18.076-2.22-3.17 0-6.343.317-8.88 1.586-4.756 2.22-11.1 9.196-11.1 19.98 0 1.585.318 3.488.635 5.39 5.707-13.002 21.247-18.71 31.077-18.71 1.903 0 3.49.317 4.757.317-5.074 4.758-6.342 12.686-6.66 18.077-.316 2.537-1.268 2.854-2.853 2.854 0 5.392 4.44 13.637 4.44 17.76 0 1.586-.95 2.854-1.584 3.17 0 7.295 7.293 12.686 7.293 17.126 0 1.27-.318 2.22-.952 2.537.634 2.854 8.563 7.928 9.514 10.465 1.27 3.17 2.854 3.488 3.488 3.488 2.854 0 7.294-3.17 7.294-6.342 0-.952-.95-2.22-1.585-2.537-3.172-2.22-4.758-7.294-6.026-10.465-1.27 0-2.537-.634-3.17-2.537-.952-3.488-.952-9.83-2.22-13.637-2.22-.634-3.172-1.27-3.172-5.708 0-2.22 1.27-10.465 1.27-13.636-.952 0-2.22-.634-2.22-2.537 0-5.39 5.39-9.514 6.66-16.173 9.513 6.977 11.732 13.953 11.732 20.296 0 3.17-.634 6.342-1.27 9.514 6.978-3.488 17.443-8.563 17.443-19.027 0-6.025-2.854-13.002-21.564-15.54 5.708-2.22 13.002-3.17 19.027-3.17 10.465 0 16.808 3.17 18.076 10.782 2.22-3.172 3.806-6.978 3.806-10.466 0-8.245-6.66-13.32-15.222-13.32-10.148 0-19.027 5.392-28.54 11.734 4.438-8.88 7.293-14.27 12.684-14.27.95 0 1.585.316 2.537.316-2.54-8.246-10.15-15.222-13.956-15.222m278.12 118.922c8.244 0 14.903 10.782 14.903 23.15 0 13.32-6.343 27.907-17.44 37.738-.318-22.198-27.59-15.222-27.59-31.396 0-6.977 5.072-11.416 10.78-11.416 5.392 0 9.515 1.585 12.368 4.44-2.854-2.855-4.44-6.66-4.44-10.466.318-6.025 4.124-12.05 11.418-12.05M434.25 108.774c4.44 4.123 8.245 6.025 12.685 6.025 1.902 0 4.122-.635 5.074-.635 1.584 0 2.536.634 2.536 1.903 0 1.902-1.586 4.757-3.49 6.342 1.904.95 4.124 1.27 6.344 1.27 9.514 0 19.98-6.026 19.98-20.93 1.9 2.536 3.17 8.244 3.17 10.464 0 18.076-13.32 25.053-25.37 25.053-7.928 0-12.05-2.537-13.002-2.537-3.17 0-2.854 6.342-5.074 6.025-3.488-.634-6.977-9.197-6.977-18.076 0-5.392 1.27-10.784 4.122-14.906m25.053-12.05c-1.27-2.22-6.343-3.172-8.563-3.172-7.294 0-12.368 5.074-13.32 9.83-.634-1.902-.95-4.122-.95-6.024 0-7.294 5.073-16.173 17.124-16.173 10.466 0 14.588 5.708 16.174 5.708s3.17-1.585 4.757-1.585c1.902 0 1.902 2.854 1.902 4.757 0 6.66-2.854 18.076-10.465 22.2-1.27-2.855-4.122-6.026-8.245-7.93-1.27-.633-1.586-1.584-1.586-2.536-.316-1.905 1.27-4.126 3.173-5.077M319.45 60.57c0 5.71 20.613 33.933 24.736 33.933 3.17 0 5.708-5.708 5.708-10.782 0-1.267-.317-2.536-.952-3.487-2.854-4.123-24.102-20.613-28.54-20.613-.634 0-.952.634-.952.95M198.31 43.447c0 3.17-12.686 14.27-17.126 14.27-1.586 0-2.22-1.902-2.22-3.805 0-3.17 1.586-7.927 3.17-9.513 2.22-1.903 6.978-2.854 10.783-2.854 2.538.317 5.392.635 5.392 1.903m150.633 9.83c0-9.83-26.638-27.906-26.956-35.517 0-.635.317-1.27.95-1.903 4.44-4.757 23.786-8.246 23.786-12.368 0-2.22-4.123-2.22-6.025-2.22-15.222 0-37.738 5.707-37.738 11.098 0 5.708 20.296 19.345 20.296 26.004 0 1.903-1.27 2.537-2.854 2.537-5.708 0-17.76-6.66-23.467-6.66-2.537 0-3.488 1.902-3.488 4.44 0 7.927 9.514 22.832 9.514 27.27 0 .635-.316 1.27-.95 1.27-2.855 0-17.126-16.49-21.882-16.49-1.903 0-1.903 2.536-1.903 6.024v5.708c0 3.806-.317 6.025-1.903 6.025-4.44 0-6.342-12.05-10.465-12.05-4.44 0-5.074 21.563-9.197 21.563-4.757 0-.634-23.467-5.39-23.467-5.075 0-10.783 15.54-14.59 15.54-1.268 0-1.584-1.27-1.584-2.538 0-4.757 2.854-12.685 2.854-17.125 0-2.22-.634-3.488-2.537-3.488-5.074 0-16.49 8.245-20.613 8.245-.634 0-1.586-.317-1.586-.95 0-3.807 18.076-16.492 18.076-22.2 0-5.39-24.736-1.903-24.736-8.246 0-5.39 17.76-10.78 17.76-16.172 0-4.757-20.93-6.977-29.177-6.977-9.83 0-14.905 1.27-14.905 3.807 0 4.44 22.2 5.708 22.2 9.514 0 3.49-22.834 13.32-22.834 19.028 0 5.074 32.347.317 32.347 5.39 0 5.71-28.224 29.81-28.224 38.056 0 1.903 1.27 2.537 3.172 2.537 8.563 0 30.76-16.49 37.104-16.49 2.22 0 2.22 2.538 2.22 5.075 0 4.44-1.586 10.782-1.586 15.54 0 3.805.952 6.342 4.44 6.342 6.025 0 11.733-10.465 15.856-10.465 5.39 0 2.22 30.444 10.148 30.444 6.66 0 9.514-32.98 13.953-32.98 4.44 0 7.928 9.513 11.734 9.513 5.075 0 2.538-16.81 7.93-16.81 5.707 0 22.197 19.663 29.81 19.663 2.22 0 3.17-1.903 3.17-4.123 0-8.88-12.368-28.542-12.368-34.884 0-1.585.634-2.22 2.22-2.22 6.343 0 25.37 8.88 34.25 8.88 1.268.637 3.17-1.266 3.17-3.17M331.82 20.614c0 2.854 10.465 9.514 15.222 9.514 2.854 0 3.488-3.806 3.488-7.928 0-5.075-2.22-5.075-6.342-5.075-5.39 0-12.368 1.268-12.368 3.488m-38.69-17.125c0-.95-5.073-1.903-11.732-1.903-10.782 0-9.197 8.88-17.442 8.88-8.563 0-6.343-9.197-17.442-9.197-6.66 0-12.685 1.27-12.685 2.537 0 1.902 7.61 1.27 7.61 6.66 0 5.707-16.807 7.293-16.807 10.782 0 1.268 1.27 1.585 2.854 1.585 3.488 0 9.514-1.585 13.636-1.585 2.22 0 4.44.634 4.44 2.537 0 4.123-8.88 11.417-8.88 14.905 0 .95.952 1.267 1.586 1.267 3.17 0 8.88-8.562 14.27-8.562 8.88 0 2.855 18.71 7.612 18.71 5.074 0 2.854-18.393 9.83-18.393 5.71 0 10.15 12.685 13.954 12.685.952 0 1.903-.95 1.903-1.903 0-3.488-5.074-10.465-5.074-15.222 0-2.854 1.904-4.123 4.758-4.123 3.805 0 8.88 2.22 11.733 2.22.953 0 1.904-.318 1.904-1.587 0-3.805-14.588-8.245-14.588-13.32.318-4.438 8.563-4.438 8.563-6.975m292.705 26.956c0 14.588-10.782 26.004-30.127 29.176 2.22.317 4.123.317 6.025.317 22.516 0 30.762-10.148 30.762-18.71.317-5.075-2.537-9.515-6.66-10.783m-27.907 16.49c0-11.733-27.906-14.587-27.906-17.44 0-2.22 15.54-5.71 23.784-6.026C541.438 7.61 523.68 9.198 523.68 6.342c0-1.585 13.318-5.074 25.37-5.074 10.146 0 19.66 2.22 19.66 10.148 0 4.44-3.488 8.88-3.488 15.222 0 3.488 1.903 6.66 6.66 6.66 5.074 0 6.342-5.392 6.342-11.1 0-4.757-.95-8.563-.95-10.782C577.27 4.44 582.028 0 588.688 0c5.707 0 6.976 2.537 15.22 2.537-4.438 2.537-6.024 7.294-6.024 9.83 0 6.978 4.44 11.735 4.44 26.005 0 26.004-24.42 35.2-54.23 35.2-8.245 0-17.124-.633-25.687-1.902-1.27-.317-1.587-.634-1.587-1.268 0-2.22 11.733-3.17 11.733-13.954 0-4.123-1.268-8.245-1.268-9.514 0-.952.634-1.27 1.268-1.27 2.537 0 7.294 9.515 16.808 9.515 2.222.317 8.564-.635 8.564-8.245m26.956-36.47c0 2.22 1.902 4.123 4.122 4.123 2.22 0 4.123-1.903 4.123-4.123s-1.903-4.123-4.124-4.123c-2.536 0-4.122 1.903-4.122 4.123M569.98 163.002c0-3.488-8.88-3.805-9.515-13.636-.316-1.585-.634-4.123-2.537-4.123-2.854 0-.634 9.197-3.805 9.197-7.61 0-10.148-14.905-13.003-14.905-.634 0-1.585.634-1.585 2.537s.317 2.854.317 5.074c0 2.22-.635 3.488-2.537 3.488-4.44 0-8.563-10.465-12.368-10.465-.95 0-1.586.633-1.586 1.268 0 1.903 3.173 5.708 3.173 7.294 0 4.123-10.782 1.903-10.782 5.074 0 1.585 1.586 1.902 3.49 1.902 3.487 0 8.878-1.585 11.732-1.585 1.586 0 4.122.317 4.122 2.537s-6.025 5.39-6.025 7.294c0 .95.95 1.585 1.902 1.585 4.44 0 12.368-7.612 18.076-7.612.95 0 3.488.634 3.488 1.903 0 2.22-5.708 6.026-5.708 9.197 0 .952.634 1.903 1.585 1.903 2.854 0 6.977-7.61 12.686-7.61 2.22 0 5.39.95 6.976.95 1.586.318 1.903-.634 1.903-1.268m4.44 80.233c2.536-8.246 6.024-13.954 11.415-22.833-5.39-2.854-19.662-8.88-19.662-18.394 0-11.417 14.27-20.296 17.125-20.296 1.27 0 1.586 1.27 1.586 3.17 0 6.026-2.854 15.54-2.854 20.614 0 4.757 2.854 9.197 5.71 9.197 2.853 0 10.464-9.83 10.464-19.662 0-17.44-15.222-22.832-19.98-22.832-4.438 0-12.684 7.294-31.71 7.294-35.52 0-43.447-35.2-43.447-50.423 0-.635.317-.953.317-.953.95 0 4.44 4.44 15.54 4.44 5.707 0 11.1-1.585 19.344-1.585 19.66 0 28.54 13.636 40.91 31.078 7.293 4.757 25.052 12.05 25.052 32.98 0 18.394-19.662 28.86-24.42 48.52 7.612-.95 12.052-14.27 19.663-14.27 4.122 0 5.708 3.17 5.708 8.245 0 7.294-4.122 18.076-12.05 25.053.317-.634.317-1.585.317-2.537 0-4.756-1.903-11.1-6.977-11.1-8.246 0-10.782 8.88-15.54 16.492-4.756-16.808-11.1-32.03-22.832-41.227-11.734-9.514-31.713-4.44-31.713-21.564 0-4.756 2.854-11.098 2.854-16.49 0-1.902-.318-3.487-1.27-4.756 15.856 6.025 10.147 16.49 19.98 27.272 6.024 6.977 22.832 13.636 32.663 42.178.317-.952.317-2.854.317-4.44 0-24.418-32.347-48.52-35.2-58.35 18.71 2.22 22.197 6.66 31.077 31.395 1.587 4.757 7.612 17.442 7.612 23.785"/><path fill="#FFF" d="M484.038 68.5c-11.416 0-19.027-5.71-19.027-8.88 0-1.586.952-2.537 2.22-2.537 3.49 0 11.417 5.708 14.272 5.708.635 0 1.27-.316 1.27-1.267 0-2.854-2.855-7.928-2.855-10.465 0-.634.635-1.27 1.586-1.27 4.44 0 11.1 1.904 14.588 1.904 1.27 0 1.587-.634 1.587-1.27 0-3.487-10.782-10.78-10.782-13 0-1.904 13.318-5.075 13.318-8.247 0-3.17-18.075-.95-18.075-4.123 0-2.22 3.488-6.342 3.488-8.245 0-.95-.635-1.27-1.903-1.27-1.585 0-9.514 3.172-12.685 3.172-1.586 0-3.488-.318-3.488-2.538 0-3.806 6.342-7.928 16.49-7.928 16.173 0 26.004 11.1 26.004 30.127-.318 24.104-17.126 30.13-26.006 30.13m-32.03-31.396c0-1.903-6.342-5.39-6.342-7.294 0-.317.317-.634.95-.634 1.904 0 5.075.634 7.295.634s2.538-9.196 4.124-9.196c1.27 0 3.17 8.88 5.073 8.88 2.22 0 6.025-2.538 7.61-2.538.318 0 .636.317.636.634 0 1.27-4.123 5.708-4.123 6.977 0 1.586 9.196 3.17 9.196 4.757 0 1.586-9.514 1.586-9.514 2.854s3.488 5.708 3.488 7.294c0 .317-.316.634-.634.634-1.27 0-6.343-2.22-7.93-2.22-1.9 0-4.756 6.66-6.34 6.66-.636 0-.952-.634-.952-1.585l-.317-6.66c0-.633-.317-1.268-1.27-1.268-1.902 0-5.707-.317-6.976-.317-.95 0-1.268-.317-1.268-.635.637-1.268 7.297-5.708 7.297-6.976m-5.075 27.272c2.537 0 3.17 6.342 3.806 10.148.317 1.903.635 2.22 1.586 2.22 1.903 0 5.074-7.61 7.294-7.61 3.172 0 11.417 8.878 25.688 8.878 19.98 0 38.69-13.954 38.69-38.69 0-24.1-16.81-38.054-40.276-38.054-11.1 0-19.027 5.39-23.467 5.39-2.537.318-6.66-6.34-8.563-6.34-.95 0-1.586 1.584-1.586 4.438 0 1.903 0 7.61-1.902 7.61-4.123 0-19.345-11.416-19.345-7.292 0 3.805 10.147 15.222 10.147 18.393 0 2.854-10.148 5.708-10.148 7.61 0 3.49 10.78 4.44 10.78 8.88 0 4.757-11.1 8.246-11.1 11.734 0 2.855 11.1.952 11.1 4.44 0 3.49-8.244 14.905-8.244 18.394 0 .95.317.95.95.95 2.855-.633 12.37-11.098 14.59-11.098M372.41 354.23c0 1.585-.634 3.17-1.903 4.756-1.903-3.17-6.977-5.074-9.197-5.074-17.125 0-10.465 24.735-28.858 24.735-7.61 0-8.246-.95-11.1-.95-1.27 0-1.903.634-1.903 1.585 0 4.44 6.024 14.905 23.15 14.905 17.124 0 33.297-10.466 33.297-23.15 0-2.22-.634-4.44-1.585-6.66.634-.95 2.22-1.585 3.805-1.585 2.537 0 4.123 2.854 6.66 2.854s4.757-1.902 4.757-4.757c0-2.22-1.268-3.49-3.17-4.758 1.268-.95 2.22-2.537 2.22-4.44 0-2.853-1.904-5.39-5.392-5.39-1.585 0-2.537.634-3.488 1.585-.317-2.854-1.903-5.708-5.074-5.708-2.537 0-4.44 1.9-4.44 4.756.317 2.218 2.22 4.438 2.22 7.293"/><path fill="#FFF" d="M281.712 323.467c13.32 3.172 19.662 10.466 21.248 18.71 1.27 7.93 2.854 14.59 6.025 18.077 4.123 4.757 12.368 8.88 19.344 8.88 6.024 0 10.782-1.903 10.782-7.295 0-6.025-8.246-19.345-19.98-19.345-1.268 0-2.536.316-4.44.316-1.584 0-3.487-.315-5.073-1.584-2.538-2.22-3.49-14.588-8.564-22.2-5.39-8.244-11.417-10.464-19.345-10.464-5.707 0-12.367 3.17-12.367 7.61.32 2.855 1.905 4.76 12.37 7.295m45.982 37.104c-5.074 0-12.368-5.39-12.368-8.245 0-2.536 2.22-3.805 4.123-3.805 4.123 0 11.417 5.073 11.417 9.514.317.95-.635 2.537-3.172 2.537"/><path fill="#FFF" d="M312.79 231.818c0-10.465 25.054-16.173 25.054-29.176 0-2.22-.952-6.025-2.22-8.88 8.88 4.758 15.222 13.003 15.222 19.346 0 11.417-11.733 16.808-11.733 23.784 0 8.245 12.685 9.514 12.685 19.662 0 8.563-12.05 18.076-12.05 29.176 0 8.562 6.024 15.222 14.904 16.49-2.854.635-5.708 1.27-8.563 1.27-16.81 0-33.934-13.637-33.934-30.128 0-8.245 3.49-15.222 8.88-20.296 4.757 4.123 9.196 6.66 12.368 6.66 2.537 0 3.806-1.27 3.806-3.17-.318-6.028-24.42-11.736-24.42-24.738m52.644 83.404c-5.708 2.537-7.928 2.22-7.928 7.93 0 2.22-.634 5.072-.634 6.34 0 1.904.317 3.173 2.537 3.173 6.024 0 15.22-10.148 15.22-18.71 0-2.22-1.268-3.172-2.853-3.172-.952 0-2.538 2.536-6.343 4.44m-.635-11.735c0-7.294-15.223-7.61-15.223-18.71 0-2.854 1.903-7.61 5.39-12.685 1.586 8.563 5.075 13.002 12.37 15.856 14.587 5.39 16.807 13.636 16.807 22.515 0 14.905-10.465 33.298-37.104 33.298-21.564 0-36.786-19.027-36.786-35.2 0-4.44 1.27-9.514 4.123-9.514 2.537 0 3.17 1.9 5.39 3.805 7.295 7.294 15.54 9.514 27.273 9.514 9.83-.32 17.76-4.442 17.76-8.882m-117.02 3.49c.317 3.487-1.903 6.66-5.39 6.976-3.49.317-6.66-2.22-6.978-5.39-.317-3.49 2.22-6.66 5.39-6.978 3.49-.635 6.66 1.902 6.978 5.39m-31.078 6.343c.634 5.707 6.025 9.83 12.05 9.195 2.22-.316 4.124-.95 5.392-1.585 1.27 5.39 5.708 8.562 11.734 7.928s10.148-5.708 9.514-11.733c-.317-1.586-.634-2.537-.95-3.806 0 0 .95 0 1.267-.318 6.024-1.27 9.83-6.025 9.513-11.733-.634-6.026-6.025-10.466-11.417-9.832-2.22.317-4.123.952-5.39 2.22-1.587-5.074-6.026-9.197-12.37-8.246-5.707.952-9.513 5.708-8.878 12.05 0 .952.317 2.22.95 3.173 0 0-.95 0-1.584.316-5.392 1.27-10.466 6.027-9.832 12.37"/></svg>